<svg xmlns="http://www.w3.org/2000/svg" clip-rule="evenodd" fill-rule="evenodd" height="512" viewBox="0 0 1.70666 1.70666" width="512"><g id="Layer_x0020_1" fill-rule="nonzero"><path d="m.886618.356189.146583.193445.231264.0801378c.0260039.00902756.0350945.0408504.0185315.0622598l-.138913.19952-.00492126.244673c.00337795.00053543-.00732283.048685-.0526929.0371102l-.233138-.0705945-.234398.0709882c-.0269803.00816535-.0534213-.0134055-.0515039-.0410197l-.00485039-.241157-.140055-.201157c-.0161772-.0232283-.00368898-.0551024.0232992-.0616969l.227642-.079063.147984-.195406c.0167362-.0220906.0500551-.0206969.0651693.00196063zm-.0332874.0883228-.122031.161055c-.00466929.00695276-.0115512.0125-.0200669.0154567l-.193063.0668701.115799.166319c.00498425.00651969.00801969.0146299.00819685.0234685l.00395669.20424.194669-.0589449c.00755512-.00250394.0159331-.00277953.0241299-.00029921l.195618.0592441.00403937-.200831c-.00057874-.00873622.00169291-.0177205.00708268-.0254606l.116831-.167736-.189543-.0658307c-.00858268-.00211811-.0165236-.0070748-.0222756-.0146693l-.123343-.162882z"></path><path d="m.759425.770591c-.0156181-.0156181-.0409409-.0156181-.0565591 0-.0156181.0156181-.0156181.0409409 0 .0565591l.0824409.082437-.00000394.00000394c.0156181.0156181.0409488.0156181.0565669 0l.0002874-.00029528.161638-.161638c.0156181-.0156181.0156181-.0409409 0-.0565591-.0156181-.0156181-.0409409-.0156181-.0565591 0l-.13365.13365-.0541614-.0541575z"></path><path d="m1.48144.890449.0765748.101055.121768.0421102c.0208661.00724409.0319094.0300433.0246654.0509094-.00146063.00420472-.00355118.00801181-.00613386.0113504l-.0726811.104394-.00259055.128783c.00523228.00082677-.012252.0508583-.0526929.0371102l-.122197-.037-.123457.0373937c-.0211417.00639764-.0434764-.00555118-.049874-.0266929-.00144488-.00477953-.00195669-.00962205-.00162992-.0143268l-.00252362-.125268-.0738543-.106012c-.012622-.018126-.00815354-.0430591.00997244-.0556811.00416929-.00290157.00870079-.00489764.0133583-.00603543l.118142-.0410354.0779843-.103016c.0167362-.0220906.0500551-.0206969.0651693.00196063zm-.0332874.0883228-.0520354.0686654c-.00466929.00695276-.0115472.0125-.020063.0154567l-.083563.0288425.0495787.0712087c.00498031.00651575.00800787.0146181.00818504.0234488l.00162992.0883543.0837283-.0253504c.00755906-.00250394.0159331-.00277953.0241299-.00029921l.0846772.0256496.00170866-.0849409c-.00057874-.00873622.00169291-.0177205.00708268-.0254606l.0505984-.0726102-.0800472-.0278031c-.00858268-.00211811-.0165236-.0070748-.0222756-.0146693l-.0533346-.0704921z"></path><path d="m.291799.890303.0765748.101055.121768.0421102c.0208661.00724409.0319094.0300433.0246654.0509094-.00146063.00420472-.00355118.00801181-.00613386.0113504l-.0726811.104394-.00259055.128783c.00523228.00082677-.012252.0508583-.0526929.0371102l-.122197-.037-.123457.0373937c-.0211417.00639764-.0434764-.00555118-.049874-.0266929-.00144488-.00477953-.00195669-.00962205-.00162992-.0143268l-.00252362-.125268-.0738543-.106012c-.012622-.018126-.00815354-.0430591.00997244-.0556811.00416929-.00290157.00870079-.00489764.0133583-.00603543l.118142-.0410354.0779843-.103016c.0167362-.0220906.0500551-.0206969.0651693.00196063zm-.0332874.0883228-.0520354.0686654c-.00466929.00695276-.0115472.0125-.020063.0154567l-.083563.0288425.0495787.0712087c.00498031.00651575.00800787.0146181.00818504.0234488l.00162992.0883543.0837283-.0253504c.00755906-.00250394.0159331-.00277953.0241299-.00029921l.0846772.0256496.00170866-.0849409c-.00057874-.00873622.00169291-.0177205.00708268-.0254606l.0505984-.0726102-.0800472-.0278031c-.00858268-.00211811-.0165236-.0070748-.0222756-.0146693l-.0533346-.0704921z"></path></g></svg>