<svg xmlns="http://www.w3.org/2000/svg" id="Layer_1" data-name="Layer 1" viewBox="0 0 64 64" width="512" height="512"><path d="M24,16a7.009,7.009,0,0,1-7-7V7A7,7,0,0,1,31,7V9A7.009,7.009,0,0,1,24,16ZM24,2a5.006,5.006,0,0,0-5,5V9A5,5,0,0,0,29,9V7A5.006,5.006,0,0,0,24,2Z"></path><path d="M21,39H15a5.006,5.006,0,0,1-5-5V22.9a4.959,4.959,0,0,1,3.8-4.855A44.281,44.281,0,0,1,24,17a44.281,44.281,0,0,1,10.2,1.049A4.959,4.959,0,0,1,38,22.9a1,1,0,0,1-2,0,2.968,2.968,0,0,0-2.267-2.91A42.319,42.319,0,0,0,24,19a42.319,42.319,0,0,0-9.733.994A2.968,2.968,0,0,0,12,22.9V34a3,3,0,0,0,3,3h6a1,1,0,0,1,0,2Z"></path><path d="M17,64a1,1,0,0,1-1-1V41a1,1,0,0,1,2,0V63A1,1,0,0,1,17,64Z"></path><path d="M31,64a1,1,0,0,1-1-1V41a1,1,0,0,1,2,0V63A1,1,0,0,1,31,64Z"></path><path d="M24,64a1,1,0,0,1-1-1V48a1,1,0,0,1,2,0V63A1,1,0,0,1,24,64Z"></path><path d="M22,34H18a3,3,0,0,1-3-3V26a1,1,0,0,1,2,0v5a1,1,0,0,0,1,1h4a1,1,0,0,1,0,2Z"></path><path d="M34,39H24a1,1,0,0,1-.948-1.316l4-12A1,1,0,0,1,28,25h6a1,1,0,0,1,0,2H28.721L25.388,37h7.891l3.357-10.068A1,1,0,0,1,37,25h1a1,1,0,0,1,.948,1.316l-4,12A1,1,0,0,1,34,39Z"></path><path d="M45,20A9,9,0,1,1,49.361,3.126a1,1,0,0,1-.97,1.748A7,7,0,1,0,52,11a7.279,7.279,0,0,0-.054-.879,1,1,0,0,1,.871-1.113.986.986,0,0,1,1.114.871A9.2,9.2,0,0,1,54,11,9.01,9.01,0,0,1,45,20Z"></path><path d="M45,14a1,1,0,0,1-.707-.293l-3-3a1,1,0,0,1,1.414-1.414L45,11.586l7.293-7.293a1,1,0,1,1,1.414,1.414l-8,8A1,1,0,0,1,45,14Z"></path></svg>